Monda-Bold.ufo
<glyph name="exclam" format="1">
  <advance width="648"/>
  <unicode hex="0021"/>
  <outline>
    <contour>
      <point x="75" y="0" type="line"/>
      <point x="325" y="0" type="line"/>
      <point x="364" y="245" type="line"/>
      <point x="114" y="245" type="line"/>
    </contour>
    <contour>
      <point x="228" y="410" type="curve"/>
      <point x="304" y="410" type="line"/>
      <point x="304" y="410"/>
      <point x="554" y="1359"/>
      <point x="573" y="1477" type="curve"/>
      <point x="314" y="1477" type="line"/>
      <point x="295" y="1359"/>
      <point x="228" y="410"/>
    </contour>
  </outline>
</glyph>
<glyph name="percent" format="1">
  <advance width="2114"/>
  <unicode hex="0025"/>
  <outline>
    <contour>
      <point x="507" y="794" type="curve" smooth="yes"/>
      <point x="380" y="794"/>
      <point x="383" y="894"/>
      <point x="404" y="1029" type="curve" smooth="yes"/>
      <point x="418" y="1118" type="line" smooth="yes"/>
      <point x="439" y="1248"/>
      <point x="462" y="1337"/>
      <point x="593" y="1337" type="curve" smooth="yes"/>
      <point x="726" y="1337"/>
      <point x="721" y="1248"/>
      <point x="700" y="1116" type="curve" smooth="yes"/>
      <point x="686" y="1029" type="line" smooth="yes"/>
      <point x="665" y="894"/>
      <point x="634" y="794"/>
    </contour>
    <contour>
      <point x="486" y="664" type="curve" smooth="yes"/>
      <point x="716" y="664"/>
      <point x="815" y="814"/>
      <point x="852" y="1043" type="curve" smooth="yes"/>
      <point x="860" y="1097" type="line" smooth="yes"/>
      <point x="895" y="1330"/>
      <point x="844" y="1467"/>
      <point x="614" y="1467" type="curve" smooth="yes"/>
      <point x="383" y="1467"/>
      <point x="292" y="1329"/>
      <point x="255" y="1096" type="curve" smooth="yes"/>
      <point x="247" y="1043" type="line" smooth="yes"/>
      <point x="210" y="815"/>
      <point x="256" y="664"/>
    </contour>
    <contour>
      <point x="1517" y="111" type="curve" smooth="yes"/>
      <point x="1389" y="111"/>
      <point x="1392" y="211"/>
      <point x="1413" y="346" type="curve" smooth="yes"/>
      <point x="1427" y="435" type="line" smooth="yes"/>
      <point x="1448" y="565"/>
      <point x="1471" y="654"/>
      <point x="1603" y="654" type="curve" smooth="yes"/>
      <point x="1735" y="654"/>
      <point x="1730" y="565"/>
      <point x="1709" y="433" type="curve" smooth="yes"/>
      <point x="1695" y="346" type="line" smooth="yes"/>
      <point x="1674" y="211"/>
      <point x="1643" y="111"/>
    </contour>
    <contour>
      <point x="1496" y="-19" type="curve" smooth="yes"/>
      <point x="1726" y="-19"/>
      <point x="1824" y="131"/>
      <point x="1860" y="360" type="curve" smooth="yes"/>
      <point x="1869" y="414" type="line" smooth="yes"/>
      <point x="1904" y="647"/>
      <point x="1854" y="784"/>
      <point x="1624" y="784" type="curve" smooth="yes"/>
      <point x="1393" y="784"/>
      <point x="1301" y="646"/>
      <point x="1264" y="413" type="curve" smooth="yes"/>
      <point x="1255" y="360" type="line" smooth="yes"/>
      <point x="1219" y="132"/>
      <point x="1266" y="-19"/>
    </contour>
    <contour>
      <point x="579" y="0" type="line"/>
      <point x="757" y="0" type="line"/>
      <point x="1524" y="1446" type="line"/>
      <point x="1351" y="1446" type="line"/>
    </contour>
  </outline>
</glyph>
<glyph name="quotesingle" format="1">
  <advance width="769"/>
  <unicode hex="0027"/>
  <outline>
    <contour>
      <point x="286" y="872" type="line"/>
      <point x="405" y="872" type="line"/>
      <point x="562" y="1516" type="line"/>
      <point x="309" y="1516" type="line"/>
    </contour>
  </outline>
</glyph>
<glyph name="plus" format="1">
  <advance width="966"/>
  <unicode hex="002B"/>
  <outline>
    <contour>
      <point x="337" y="156" type="line"/>
      <point x="501" y="156" type="line"/>
      <point x="553" y="487" type="line"/>
      <point x="822" y="487" type="line"/>
      <point x="848" y="649" type="line"/>
      <point x="579" y="649" type="line"/>
      <point x="629" y="968" type="line"/>
      <point x="465" y="968" type="line"/>
      <point x="415" y="649" type="line"/>
      <point x="146" y="649" type="line"/>
      <point x="120" y="487" type="line"/>
      <point x="389" y="487" type="line"/>
    </contour>
  </outline>
</glyph>
<glyph name="comma" format="1">
  <advance width="768"/>
  <unicode hex="002C"/>
  <outline>
    <contour>
      <point x="296" y="-389" type="line"/>
      <point x="367" y="-333"/>
      <point x="531" y="-148"/>
      <point x="562" y="53" type="curve" smooth="yes"/>
      <point x="598" y="276" type="line"/>
      <point x="276" y="276" type="line"/>
      <point x="232" y="0" type="line"/>
      <point x="397" y="0" type="line"/>
      <point x="375" y="-138"/>
      <point x="257" y="-285"/>
      <point x="197" y="-343" type="curve"/>
    </contour>
  </outline>
</glyph>
<glyph name="period" format="1">
  <advance width="634"/>
  <unicode hex="002E"/>
  <outline>
    <contour>
      <point x="142" y="0" type="line"/>
      <point x="440" y="0" type="line"/>
      <point x="484" y="284" type="line"/>
      <point x="186" y="284" type="line"/>
    </contour>
  </outline>
</glyph>
<glyph name="one" format="1">
  <advance width="1379"/>
  <unicode hex="0031"/>
  <outline>
    <contour>
      <point x="132" y="0" type="line"/>
      <point x="1116" y="0" type="line"/>
      <point x="1149" y="209" type="line"/>
      <point x="823" y="209" type="line"/>
      <point x="1024" y="1476" type="line"/>
      <point x="819" y="1476" type="line"/>
      <point x="350" y="1404" type="line"/>
      <point x="342" y="1187" type="line"/>
      <point x="690" y="1241" type="line"/>
      <point x="526" y="209" type="line"/>
      <point x="165" y="209" type="line"/>
    </contour>
  </outline>
</glyph>
<glyph name="four" format="1">
  <advance width="1379"/>
  <unicode hex="0034"/>
  <outline>
    <contour>
      <point x="722" y="0" type="line"/>
      <point x="959" y="0" type="line"/>
      <point x="1004" y="282" type="line"/>
      <point x="1224" y="282" type="line"/>
      <point x="1263" y="528" type="line"/>
      <point x="1043" y="528" type="line"/>
      <point x="1096" y="862" type="line"/>
      <point x="859" y="862" type="line"/>
      <point x="806" y="528" type="line"/>
      <point x="461" y="528" type="line"/>
      <point x="1041" y="1476" type="line"/>
      <point x="736" y="1476" type="line"/>
      <point x="137" y="531" type="line"/>
      <point x="98" y="282" type="line"/>
      <point x="767" y="282" type="line"/>
    </contour>
  </outline>
</glyph>
<glyph name="nine" format="1">
  <advance width="1379"/>
  <unicode hex="0039"/>
  <outline>
    <contour>
      <point x="368" y="0" type="line"/>
      <point x="688" y="0" type="line"/>
      <point x="1061" y="528" type="line" smooth="yes"/>
      <point x="1163" y="677"/>
      <point x="1244" y="833"/>
      <point x="1275" y="1024" type="curve" smooth="yes"/>
      <point x="1323" y="1327"/>
      <point x="1162" y="1496"/>
      <point x="826" y="1496" type="curve" smooth="yes"/>
      <point x="478" y="1496"/>
      <point x="259" y="1332"/>
      <point x="213" y="1037" type="curve" smooth="yes"/>
      <point x="156" y="679"/>
      <point x="314" y="569"/>
      <point x="628" y="569" type="curve" smooth="yes"/>
      <point x="658" y="569"/>
      <point x="745" y="578"/>
      <point x="783" y="589" type="curve"/>
    </contour>
    <contour>
      <point x="712" y="782" type="curve" smooth="yes"/>
      <point x="520" y="782"/>
      <point x="467" y="844"/>
      <point x="498" y="1037" type="curve" smooth="yes"/>
      <point x="523" y="1194"/>
      <point x="627" y="1282"/>
      <point x="789" y="1282" type="curve" smooth="yes"/>
      <point x="940" y="1282"/>
      <point x="1010" y="1195"/>
      <point x="985" y="1039" type="curve" smooth="yes"/>
      <point x="955" y="848"/>
      <point x="887" y="782"/>
    </contour>
  </outline>
</glyph>
<glyph name="at" format="1">
  <advance width="2048"/>
  <unicode hex="0040"/>
  <outline>
    <contour>
      <point x="926" y="-477" type="curve" smooth="yes"/>
      <point x="1170" y="-477"/>
      <point x="1432" y="-423"/>
      <point x="1623" y="-375" type="curve"/>
      <point x="1597" y="-172" type="line"/>
      <point x="1430" y="-206"/>
      <point x="1200" y="-256"/>
      <point x="986" y="-256" type="curve" smooth="yes"/>
      <point x="642" y="-256"/>
      <point x="392" y="-125"/>
      <point x="470" y="363" type="curve" smooth="yes"/>
      <point x="530" y="741" type="line" smooth="yes"/>
      <point x="610" y="1246"/>
      <point x="813" y="1320"/>
      <point x="1186" y="1320" type="curve" smooth="yes"/>
      <point x="1557" y="1320"/>
      <point x="1596" y="1186"/>
      <point x="1550" y="895" type="curve"/>
      <point x="1550" y="895"/>
      <point x="1228" y="819"/>
      <point x="1186" y="809" type="curve" smooth="yes"/>
      <point x="807" y="713"/>
      <point x="739" y="583"/>
      <point x="714" y="428" type="curve" smooth="yes"/>
      <point x="675" y="185"/>
      <point x="841" y="53"/>
      <point x="1062" y="53" type="curve" smooth="yes"/>
      <point x="1220" y="53"/>
      <point x="1388" y="119"/>
      <point x="1466" y="208" type="curve"/>
      <point x="1490" y="127"/>
      <point x="1514" y="59"/>
      <point x="1669" y="59" type="curve" smooth="yes"/>
      <point x="1775" y="59" type="line"/>
      <point x="1826" y="259" type="line"/>
      <point x="1730" y="259"/>
      <point x="1725" y="295"/>
      <point x="1741" y="394" type="curve" smooth="yes"/>
      <point x="1813" y="863" type="line" smooth="yes"/>
      <point x="1885" y="1318"/>
      <point x="1752" y="1523"/>
      <point x="1172" y="1523" type="curve" smooth="yes"/>
      <point x="617" y="1523"/>
      <point x="357" y="1260"/>
      <point x="279" y="770" type="curve" smooth="yes"/>
      <point x="212" y="348" type="line" smooth="yes"/>
      <point x="114" y="-272"/>
      <point x="439" y="-477"/>
    </contour>
    <contour>
      <point x="1145" y="267" type="curve" smooth="yes"/>
      <point x="1037" y="267"/>
      <point x="951" y="311"/>
      <point x="970" y="438" type="curve" smooth="yes"/>
      <point x="985" y="549"/>
      <point x="1038" y="616"/>
      <point x="1232" y="666" type="curve" smooth="yes"/>
      <point x="1281" y="678"/>
      <point x="1522" y="741"/>
      <point x="1527" y="744" type="curve"/>
      <point x="1469" y="377" type="line"/>
      <point x="1451" y="325"/>
      <point x="1267" y="267"/>
    </contour>
  </outline>
</glyph>
<glyph name="A" format="1">
  <advance width="1540"/>
  <unicode hex="0041"/>
  <outline>
    <contour>
      <point x="-33" y="0" type="line"/>
      <point x="274" y="0" type="line"/>
      <point x="405" y="281" type="line"/>
      <point x="989" y="281" type="line"/>
      <point x="1027" y="0" type="line"/>
      <point x="1339" y="0" type="line"/>
      <point x="1081" y="1476" type="line"/>
      <point x="687" y="1476" type="line"/>
    </contour>
    <contour>
      <point x="495" y="479" type="line"/>
      <point x="854" y="1245" type="line"/>
      <point x="963" y="479" type="line"/>
    </contour>
    <contour>
      <point x="1171" y="0" type="move" name="ogonek"/>
    </contour>
    <contour>
      <point x="898" y="1476" type="move" name="top"/>
    </contour>
  </outline>
</glyph>
<glyph name="C" format="1">
  <advance width="1509"/>
  <unicode hex="0043"/>
  <outline>
    <contour>
      <point x="667" y="-26" type="curve" smooth="yes"/>
      <point x="1179" y="-26"/>
      <point x="1283" y="190"/>
      <point x="1329" y="480" type="curve" smooth="yes"/>
      <point x="1333" y="507" type="line"/>
      <point x="1042" y="507" type="line"/>
      <point x="1035" y="460" type="line" smooth="yes"/>
      <point x="1002" y="250"/>
      <point x="930" y="207"/>
      <point x="705" y="207" type="curve" smooth="yes"/>
      <point x="483" y="207"/>
      <point x="388" y="252"/>
      <point x="420" y="454" type="curve" smooth="yes"/>
      <point x="508" y="1012" type="line" smooth="yes"/>
      <point x="541" y="1215"/>
      <point x="652" y="1268"/>
      <point x="872" y="1268" type="curve" smooth="yes"/>
      <point x="1097" y="1268"/>
      <point x="1154" y="1213"/>
      <point x="1122" y="1006" type="curve" smooth="yes"/>
      <point x="1110" y="931" type="line"/>
      <point x="1406" y="965" type="line"/>
      <point x="1409" y="983" type="line" smooth="yes"/>
      <point x="1456" y="1281"/>
      <point x="1413" y="1501"/>
      <point x="909" y="1501" type="curve" smooth="yes"/>
      <point x="380" y="1501"/>
      <point x="253" y="1275"/>
      <point x="206" y="977" type="curve" smooth="yes"/>
      <point x="128" y="484" type="line" smooth="yes"/>
      <point x="82" y="193"/>
      <point x="141" y="-26"/>
    </contour>
    <contour>
      <point x="648" y="0" type="move" name="bot"/>
    </contour>
    <contour>
      <point x="905" y="1476" type="move" name="top"/>
    </contour>
  </outline>
</glyph>
<glyph name="D" format="1">
  <advance width="1564"/>
  <unicode hex="0044"/>
  <outline>
    <contour>
      <point x="429" y="231" type="line"/>
      <point x="589" y="1245" type="line"/>
      <point x="907" y="1245" type="line" smooth="yes"/>
      <point x="1113" y="1245"/>
      <point x="1166" y="1160"/>
      <point x="1140" y="1000" type="curve" smooth="yes"/>
      <point x="1057" y="470" type="line" smooth="yes"/>
      <point x="1031" y="306"/>
      <point x="956" y="231"/>
      <point x="747" y="231" type="curve" smooth="yes"/>
    </contour>
    <contour>
      <point x="95" y="0" type="line"/>
      <point x="736" y="0" type="line" smooth="yes"/>
      <point x="1151" y="0"/>
      <point x="1313" y="213"/>
      <point x="1360" y="508" type="curve" smooth="yes"/>
      <point x="1431" y="961" type="line" smooth="yes"/>
      <point x="1477" y="1250"/>
      <point x="1397" y="1476"/>
      <point x="969" y="1476" type="curve" smooth="yes"/>
      <point x="329" y="1476" type="line"/>
    </contour>
    <contour>
      <point x="382" y="781" type="move" name="mid"/>
    </contour>
    <contour>
      <point x="896" y="1476" type="move" name="top"/>
    </contour>
  </outline>
</glyph>
<glyph name="G" format="1">
  <advance width="1623"/>
  <unicode hex="0047"/>
  <outline>
    <contour>
      <point x="700" y="-26" type="curve" smooth="yes"/>
      <point x="1019" y="-26"/>
      <point x="1111" y="123"/>
      <point x="1133" y="170" type="curve"/>
      <point x="1153" y="0" type="line"/>
      <point x="1310" y="0" type="line"/>
      <point x="1430" y="757" type="line"/>
      <point x="864" y="757" type="line"/>
      <point x="833" y="562" type="line"/>
      <point x="1131" y="562" type="line"/>
      <point x="1114" y="454" type="line" smooth="yes"/>
      <point x="1082" y="252"/>
      <point x="962" y="207"/>
      <point x="737" y="207" type="curve" smooth="yes"/>
      <point x="515" y="207"/>
      <point x="389" y="252"/>
      <point x="421" y="454" type="curve" smooth="yes"/>
      <point x="509" y="1012" type="line" smooth="yes"/>
      <point x="542" y="1215"/>
      <point x="685" y="1268"/>
      <point x="905" y="1268" type="curve" smooth="yes"/>
      <point x="1127" y="1268"/>
      <point x="1210" y="1219"/>
      <point x="1179" y="1021" type="curve" smooth="yes"/>
      <point x="1170" y="962" type="line"/>
      <point x="1465" y="984" type="line"/>
      <point x="1469" y="1007" type="line" smooth="yes"/>
      <point x="1514" y="1290"/>
      <point x="1454" y="1501"/>
      <point x="942" y="1501" type="curve" smooth="yes"/>
      <point x="413" y="1501"/>
      <point x="253" y="1275"/>
      <point x="206" y="977" type="curve" smooth="yes"/>
      <point x="128" y="484" type="line" smooth="yes"/>
      <point x="82" y="193"/>
      <point x="174" y="-26"/>
    </contour>
    <contour>
      <point x="651" y="0" type="move" name="bot"/>
    </contour>
    <contour>
      <point x="940" y="1476" type="move" name="top"/>
    </contour>
  </outline>
</glyph>
<glyph name="J" format="1">
  <advance width="1222"/>
  <unicode hex="004A"/>
  <outline>
    <contour>
      <point x="385" y="-25" type="curve" smooth="yes"/>
      <point x="716" y="-25"/>
      <point x="943" y="138"/>
      <point x="988" y="422" type="curve" smooth="yes"/>
      <point x="1155" y="1476" type="line"/>
      <point x="350" y="1476" type="line"/>
      <point x="314" y="1250" type="line"/>
      <point x="822" y="1250" type="line"/>
      <point x="694" y="441" type="line" smooth="yes"/>
      <point x="674" y="313"/>
      <point x="589" y="209"/>
      <point x="403" y="209" type="curve" smooth="yes"/>
      <point x="299" y="209"/>
      <point x="159" y="242"/>
      <point x="70" y="287" type="curve"/>
      <point x="-34" y="67" type="line"/>
      <point x="86" y="6"/>
      <point x="241" y="-25"/>
    </contour>
    <contour>
      <point x="756" y="1476" type="move" name="top"/>
    </contour>
  </outline>
</glyph>
<glyph name="L" format="1">
  <advance width="1194"/>
  <unicode hex="004C"/>
  <outline>
    <contour>
      <point x="95" y="0" type="line"/>
      <point x="1009" y="0" type="line"/>
      <point x="1046" y="232" type="line"/>
      <point x="429" y="232" type="line"/>
      <point x="626" y="1476" type="line"/>
      <point x="329" y="1476" type="line"/>
    </contour>
    <contour>
      <point x="562" y="1074" type="move" name="caron.alt"/>
    </contour>
    <contour>
      <point x="437" y="811" type="move" name="mid"/>
    </contour>
    <contour>
      <point x="561" y="1476" type="move" name="top"/>
    </contour>
    <contour>
      <point x="540" y="0" type="move" name="bot"/>
    </contour>
  </outline>
</glyph>
<glyph name="O" format="1">
  <advance width="1622"/>
  <unicode hex="004F"/>
  <outline>
    <contour>
      <point x="738" y="207" type="curve" smooth="yes"/>
      <point x="516" y="207"/>
      <point x="391" y="265"/>
      <point x="423" y="468" type="curve" smooth="yes"/>
      <point x="508" y="1003" type="line" smooth="yes"/>
      <point x="540" y="1205"/>
      <point x="686" y="1268"/>
      <point x="906" y="1268" type="curve" smooth="yes"/>
      <point x="1128" y="1268"/>
      <point x="1229" y="1201"/>
      <point x="1198" y="1003" type="curve" smooth="yes"/>
      <point x="1113" y="468" type="line" smooth="yes"/>
      <point x="1081" y="266"/>
      <point x="962" y="207"/>
    </contour>
    <contour>
      <point x="701" y="-26" type="curve" smooth="yes"/>
      <point x="1209" y="-26"/>
      <point x="1373" y="227"/>
      <point x="1419" y="517" type="curve" smooth="yes"/>
      <point x="1487" y="948" type="line" smooth="yes"/>
      <point x="1535" y="1247"/>
      <point x="1453" y="1501"/>
      <point x="943" y="1501" type="curve" smooth="yes"/>
      <point x="410" y="1501"/>
      <point x="251" y="1262"/>
      <point x="204" y="963" type="curve" smooth="yes"/>
      <point x="131" y="501" type="line" smooth="yes"/>
      <point x="84" y="209"/>
      <point x="170" y="-26"/>
    </contour>
    <contour>
      <point x="766" y="0" type="move" name="ogonek"/>
    </contour>
    <contour>
      <point x="939" y="1476" type="move" name="top"/>
    </contour>
  </outline>
</glyph>
<glyph name="T" format="1">
  <advance width="1194"/>
  <unicode hex="0054"/>
  <outline>
    <contour>
      <point x="332" y="0" type="line"/>
      <point x="628" y="0" type="line"/>
      <point x="826" y="1250" type="line"/>
      <point x="1237" y="1250" type="line"/>
      <point x="1273" y="1476" type="line"/>
      <point x="155" y="1476" type="line"/>
      <point x="119" y="1250" type="line"/>
      <point x="530" y="1250" type="line"/>
    </contour>
    <contour>
      <point x="458" y="0" type="move" name="bot"/>
    </contour>
    <contour>
      <point x="607" y="762" type="move" name="mid"/>
    </contour>
    <contour>
      <point x="718" y="1476" type="move" name="top"/>
    </contour>
  </outline>
</glyph>
<glyph name="V" format="1">
  <advance width="1484"/>
  <unicode hex="0056"/>
  <outline>
    <contour>
      <point x="447" y="0" type="line"/>
      <point x="807" y="0" type="line"/>
      <point x="1561" y="1476" type="line"/>
      <point x="1246" y="1476" type="line"/>
      <point x="677" y="287" type="line"/>
      <point x="471" y="1476" type="line"/>
      <point x="157" y="1476" type="line"/>
    </contour>
  </outline>
</glyph>
<glyph name="W" format="1">
  <advance width="2014"/>
  <unicode hex="0057"/>
  <outline>
    <contour>
      <point x="330" y="0" type="line"/>
      <point x="596" y="0" type="line"/>
      <point x="1053" y="1053" type="line"/>
      <point x="1202" y="0" type="line"/>
      <point x="1451" y="0" type="line"/>
      <point x="2061" y="1476" type="line"/>
      <point x="1779" y="1476" type="line"/>
      <point x="1391" y="466" type="line"/>
      <point x="1238" y="1476" type="line"/>
      <point x="989" y="1476" type="line"/>
      <point x="555" y="455" type="line"/>
      <point x="468" y="1476" type="line"/>
      <point x="187" y="1476" type="line"/>
    </contour>
    <contour>
      <point x="1113" y="1476" type="move" name="top"/>
    </contour>
  </outline>
</glyph>
<glyph name="X" format="1">
  <advance width="1352"/>
  <unicode hex="0058"/>
  <outline>
    <contour>
      <point x="-79" y="0" type="line"/>
      <point x="231" y="0" type="line"/>
      <point x="631" y="501" type="line"/>
      <point x="870" y="0" type="line"/>
      <point x="1197" y="0" type="line"/>
      <point x="832" y="749" type="line"/>
      <point x="1414" y="1476" type="line"/>
      <point x="1086" y="1476" type="line"/>
      <point x="710" y="997" type="line"/>
      <point x="476" y="1476" type="line"/>
      <point x="167" y="1476" type="line"/>
      <point x="515" y="748" type="line"/>
    </contour>
  </outline>
</glyph>
<glyph name="bracketright" format="1">
  <advance width="842"/>
  <unicode hex="005D"/>
  <outline>
    <contour>
      <point x="13" y="-89" type="line"/>
      <point x="495" y="-89" type="line"/>
      <point x="761" y="1592" type="line"/>
      <point x="279" y="1592" type="line"/>
      <point x="254" y="1431" type="line"/>
      <point x="464" y="1431" type="line"/>
      <point x="248" y="72" type="line"/>
      <point x="38" y="72" type="line"/>
    </contour>
  </outline>
</glyph>
<glyph name="grave" format="1">
  <advance width="556"/>
  <unicode hex="0060"/>
  <outline>
    <contour>
      <point x="105" y="1583" type="line"/>
      <point x="280" y="1218" type="line"/>
      <point x="429" y="1218" type="line"/>
      <point x="373" y="1583" type="line"/>
    </contour>
    <contour>
      <point x="345" y="1074" type="move" name="_top"/>
    </contour>
  </outline>
</glyph>
<glyph name="e" format="1">
  <advance width="1181"/>
  <unicode hex="0065"/>
  <outline>
    <contour>
      <point x="513" y="-23" type="curve" smooth="yes"/>
      <point x="793" y="-23"/>
      <point x="966" y="32"/>
      <point x="1021" y="330" type="curve"/>
      <point x="769" y="330" type="line"/>
      <point x="739" y="168"/>
      <point x="673" y="166"/>
      <point x="548" y="166" type="curve" smooth="yes"/>
      <point x="418" y="166"/>
      <point x="356" y="183"/>
      <point x="376" y="310" type="curve" smooth="yes"/>
      <point x="404" y="485" type="line"/>
      <point x="1047" y="485" type="line"/>
      <point x="1088" y="745" type="line" smooth="yes"/>
      <point x="1122" y="961"/>
      <point x="1018" y="1097"/>
      <point x="687" y="1097" type="curve" smooth="yes"/>
      <point x="408" y="1097"/>
      <point x="209" y="974"/>
      <point x="175" y="755" type="curve" smooth="yes"/>
      <point x="108" y="336" type="line" smooth="yes"/>
      <point x="64" y="60"/>
      <point x="250" y="-23"/>
    </contour>
    <contour>
      <point x="430" y="651" type="line"/>
      <point x="449" y="772" type="line" smooth="yes"/>
      <point x="467" y="886"/>
      <point x="555" y="907"/>
      <point x="664" y="907" type="curve" smooth="yes"/>
      <point x="773" y="907"/>
      <point x="855" y="896"/>
      <point x="836" y="777" type="curve" smooth="yes"/>
      <point x="816" y="651" type="line"/>
    </contour>
    <contour>
      <point x="517" y="0" type="move" name="bot"/>
    </contour>
    <contour>
      <point x="619" y="0" type="move" name="ogonek"/>
    </contour>
    <contour>
      <point x="703" y="1074" type="move" name="top"/>
    </contour>
  </outline>
</glyph>
<glyph name="f" format="1">
  <advance width="778"/>
  <unicode hex="0066"/>
  <outline>
    <contour>
      <point x="109" y="0" type="line"/>
      <point x="381" y="0" type="line"/>
      <point x="524" y="901" type="line"/>
      <point x="738" y="901" type="line"/>
      <point x="765" y="1074" type="line"/>
      <point x="551" y="1074" type="line"/>
      <point x="569" y="1186" type="line" smooth="yes"/>
      <point x="580" y="1258"/>
      <point x="612" y="1327"/>
      <point x="730" y="1327" type="curve" smooth="yes"/>
      <point x="814" y="1327" type="line"/>
      <point x="837" y="1516" type="line"/>
      <point x="711" y="1516" type="line" smooth="yes"/>
      <point x="456" y="1516"/>
      <point x="328" y="1380"/>
      <point x="287" y="1125" type="curve" smooth="yes"/>
      <point x="279" y="1074" type="line"/>
      <point x="136" y="1074" type="line"/>
      <point x="109" y="901" type="line"/>
      <point x="252" y="901" type="line"/>
    </contour>
    <contour>
      <point x="536" y="1476" type="move" name="top"/>
    </contour>
  </outline>
</glyph>
<glyph name="i" format="1">
  <advance width="570"/>
  <unicode hex="0069"/>
  <outline>
    <component base="dotlessi"/>
    <component base="dotaccent" xOffset="179"/>
    <contour>
      <point x="190" y="0" type="move" name="ogonek"/>
    </contour>
    <contour>
      <point x="354" y="1074" type="move" name="top"/>
    </contour>
  </outline>
</glyph>
<glyph name="m" format="1">
  <advance width="1912"/>
  <unicode hex="006D"/>
  <outline>
    <contour>
      <point x="81" y="0" type="line"/>
      <point x="353" y="0" type="line"/>
      <point x="470" y="739" type="line" smooth="yes"/>
      <point x="487" y="844"/>
      <point x="622" y="897"/>
      <point x="720" y="897" type="curve" smooth="yes"/>
      <point x="805" y="897"/>
      <point x="877" y="875"/>
      <point x="859" y="762" type="curve" smooth="yes"/>
      <point x="738" y="0" type="line"/>
      <point x="1010" y="0" type="line"/>
      <point x="1129" y="750" type="line"/>
      <point x="1152" y="846"/>
      <point x="1283" y="897"/>
      <point x="1380" y="897" type="curve" smooth="yes"/>
      <point x="1464" y="897"/>
      <point x="1530" y="875"/>
      <point x="1512" y="762" type="curve" smooth="yes"/>
      <point x="1391" y="0" type="line"/>
      <point x="1663" y="0" type="line"/>
      <point x="1789" y="794" type="line" smooth="yes"/>
      <point x="1818" y="975"/>
      <point x="1702" y="1097"/>
      <point x="1496" y="1097" type="curve" smooth="yes"/>
      <point x="1326" y="1097"/>
      <point x="1208" y="1042"/>
      <point x="1118" y="964" type="curve"/>
      <point x="1077" y="1056"/>
      <point x="982" y="1097"/>
      <point x="844" y="1097" type="curve" smooth="yes"/>
      <point x="665" y="1097"/>
      <point x="544" y="1011"/>
      <point x="508" y="978" type="curve"/>
      <point x="523" y="1074" type="line"/>
      <point x="251" y="1074" type="line"/>
    </contour>
    <contour>
      <point x="1145" y="1074" type="move" name="top"/>
    </contour>
  </outline>
</glyph>
<glyph name="n" format="1">
  <advance width="1272"/>
  <unicode hex="006E"/>
  <outline>
    <contour>
      <point x="81" y="0" type="line"/>
      <point x="353" y="0" type="line"/>
      <point x="469" y="735" type="line" smooth="yes"/>
      <point x="486" y="840"/>
      <point x="606" y="894"/>
      <point x="704" y="894" type="curve" smooth="yes"/>
      <point x="789" y="894"/>
      <point x="888" y="868"/>
      <point x="871" y="755" type="curve" smooth="yes"/>
      <point x="751" y="0" type="line"/>
      <point x="1023" y="0" type="line"/>
      <point x="1145" y="770" type="line" smooth="yes"/>
      <point x="1174" y="951"/>
      <point x="1091" y="1090"/>
      <point x="886" y="1098" type="curve" smooth="yes"/>
      <point x="668" y="1107"/>
      <point x="534" y="999"/>
      <point x="508" y="979" type="curve"/>
      <point x="523" y="1074" type="line"/>
      <point x="251" y="1074" type="line"/>
    </contour>
    <contour>
      <point x="577" y="0" type="move" name="bot"/>
    </contour>
    <contour>
      <point x="762" y="1074" type="move" name="top"/>
    </contour>
  </outline>
</glyph>
<glyph name="o" format="1">
  <advance width="1212"/>
  <unicode hex="006F"/>
  <outline>
    <contour>
      <point x="547" y="166" type="curve" smooth="yes"/>
      <point x="422" y="166"/>
      <point x="359" y="204"/>
      <point x="377" y="313" type="curve" smooth="yes"/>
      <point x="447" y="760" type="line" smooth="yes"/>
      <point x="465" y="869"/>
      <point x="547" y="907"/>
      <point x="665" y="907" type="curve" smooth="yes"/>
      <point x="788" y="907"/>
      <point x="853" y="869"/>
      <point x="835" y="760" type="curve" smooth="yes"/>
      <point x="765" y="313" type="line" smooth="yes"/>
      <point x="747" y="204"/>
      <point x="663" y="166"/>
    </contour>
    <contour>
      <point x="517" y="-23" type="curve" smooth="yes"/>
      <point x="866" y="-23"/>
      <point x="1005" y="112"/>
      <point x="1038" y="325" type="curve" smooth="yes"/>
      <point x="1105" y="748" type="line" smooth="yes"/>
      <point x="1140" y="967"/>
      <point x="988" y="1097"/>
      <point x="695" y="1097" type="curve" smooth="yes"/>
      <point x="400" y="1097"/>
      <point x="208" y="967"/>
      <point x="173" y="748" type="curve" smooth="yes"/>
      <point x="106" y="325" type="line" smooth="yes"/>
      <point x="73" y="111"/>
      <point x="178" y="-23"/>
    </contour>
    <contour>
      <point x="523" y="0" type="move" name="bot"/>
    </contour>
    <contour>
      <point x="588" y="0" type="move" name="ogonek"/>
    </contour>
    <contour>
      <point x="693" y="1074" type="move" name="top"/>
    </contour>
  </outline>
</glyph>
<glyph name="q" format="1">
  <advance width="1210"/>
  <unicode hex="0071"/>
  <outline>
    <contour>
      <point x="651" y="-410" type="line"/>
      <point x="923" y="-410" type="line"/>
      <point x="1158" y="1074" type="line"/>
      <point x="955" y="1074" type="line"/>
      <point x="925" y="1005" type="line"/>
      <point x="872" y="1056"/>
      <point x="774" y="1097"/>
      <point x="662" y="1097" type="curve" smooth="yes"/>
      <point x="401" y="1097"/>
      <point x="222" y="960"/>
      <point x="188" y="750" type="curve" smooth="yes"/>
      <point x="120" y="317" type="line" smooth="yes"/>
      <point x="91" y="136"/>
      <point x="177" y="-23"/>
      <point x="479" y="-23" type="curve" smooth="yes"/>
      <point x="561" y="-23"/>
      <point x="650" y="-4"/>
      <point x="721" y="33" type="curve"/>
    </contour>
    <contour>
      <point x="560" y="166" type="curve" smooth="yes"/>
      <point x="439" y="166"/>
      <point x="373" y="200"/>
      <point x="390" y="308" type="curve" smooth="yes"/>
      <point x="461" y="756" type="line" smooth="yes"/>
      <point x="479" y="865"/>
      <point x="561" y="907"/>
      <point x="677" y="907" type="curve" smooth="yes"/>
      <point x="774" y="907"/>
      <point x="830" y="878"/>
      <point x="848" y="839" type="curve"/>
      <point x="750" y="220" type="line"/>
      <point x="746" y="213"/>
      <point x="674" y="166"/>
    </contour>
  </outline>
</glyph>
<glyph name="r" format="1">
  <advance width="855"/>
  <unicode hex="0072"/>
  <outline>
    <contour>
      <point x="74" y="0" type="line"/>
      <point x="346" y="0" type="line"/>
      <point x="460" y="720" type="line"/>
      <point x="494" y="806"/>
      <point x="716" y="852"/>
      <point x="855" y="859" type="curve"/>
      <point x="897" y="1090" type="line"/>
      <point x="809" y="1100"/>
      <point x="562" y="1045"/>
      <point x="495" y="946" type="curve"/>
      <point x="516" y="1074" type="line"/>
      <point x="244" y="1074" type="line"/>
    </contour>
    <contour>
      <point x="215" y="0" type="move" name="bot"/>
    </contour>
    <contour>
      <point x="626" y="1074" type="move" name="top"/>
    </contour>
  </outline>
</glyph>
<glyph name="w" format="1">
  <advance width="1692"/>
  <unicode hex="0077"/>
  <outline>
    <contour>
      <point x="280" y="0" type="line"/>
      <point x="538" y="0" type="line"/>
      <point x="884" y="741" type="line"/>
      <point x="987" y="0" type="line"/>
      <point x="1253" y="0" type="line"/>
      <point x="1709" y="1074" type="line"/>
      <point x="1456" y="1074" type="line"/>
      <point x="1154" y="295" type="line"/>
      <point x="1045" y="1074" type="line"/>
      <point x="824" y="1074" type="line"/>
      <point x="477" y="304" type="line"/>
      <point x="407" y="1074" type="line"/>
      <point x="153" y="1074" type="line"/>
    </contour>
    <contour>
      <point x="941" y="1074" type="move" name="top"/>
    </contour>
  </outline>
</glyph>
<glyph name="x" format="1">
  <advance width="1118"/>
  <unicode hex="0078"/>
  <outline>
    <contour>
      <point x="-31" y="0" type="line"/>
      <point x="258" y="0" type="line"/>
      <point x="535" y="338" type="line"/>
      <point x="708" y="0" type="line"/>
      <point x="979" y="0" type="line"/>
      <point x="702" y="536" type="line"/>
      <point x="1147" y="1074" type="line"/>
      <point x="870" y="1074" type="line"/>
      <point x="594" y="738" type="line"/>
      <point x="424" y="1074" type="line"/>
      <point x="140" y="1074" type="line"/>
      <point x="424" y="540" type="line"/>
    </contour>
  </outline>
</glyph>
<glyph name="sterling" format="1">
  <advance width="1285"/>
  <unicode hex="00A3"/>
  <outline>
    <contour>
      <point x="86" y="0" type="line"/>
      <point x="1004" y="0" type="line"/>
      <point x="1040" y="226" type="line"/>
      <point x="432" y="226" type="line"/>
      <point x="528" y="621" type="line"/>
      <point x="1021" y="621" type="line"/>
      <point x="1052" y="812" type="line"/>
      <point x="576" y="812" type="line"/>
      <point x="631" y="1044" type="line" smooth="yes"/>
      <point x="663" y="1180"/>
      <point x="722" y="1281"/>
      <point x="878" y="1281" type="curve" smooth="yes"/>
      <point x="949" y="1281"/>
      <point x="1033" y="1261"/>
      <point x="1131" y="1214" type="curve"/>
      <point x="1234" y="1415" type="line"/>
      <point x="1164" y="1467"/>
      <point x="1034" y="1515"/>
      <point x="891" y="1515" type="curve" smooth="yes"/>
      <point x="560" y="1515"/>
      <point x="400" y="1344"/>
      <point x="339" y="1061" type="curve" smooth="yes"/>
      <point x="280" y="812" type="line"/>
      <point x="143" y="812" type="line"/>
      <point x="112" y="621" type="line"/>
      <point x="234" y="621" type="line"/>
    </contour>
  </outline>
</glyph>
<glyph name="yen" format="1">
  <advance width="1304"/>
  <unicode hex="00A5"/>
  <outline>
    <contour>
      <point x="988" y="533" type="line"/>
      <point x="1009" y="667" type="line"/>
      <point x="267" y="667" type="line"/>
      <point x="246" y="533" type="line"/>
    </contour>
    <contour>
      <point x="940" y="231" type="line"/>
      <point x="961" y="365" type="line"/>
      <point x="219" y="365" type="line"/>
      <point x="198" y="231" type="line"/>
    </contour>
    <component base="Y"/>
  </outline>
</glyph>
<glyph name="degree" format="1">
  <advance width="974"/>
  <unicode hex="00B0"/>
  <outline>
    <contour>
      <point x="459" y="992" type="curve" smooth="yes"/>
      <point x="321" y="992"/>
      <point x="272" y="1082"/>
      <point x="288" y="1181" type="curve" smooth="yes"/>
      <point x="303" y="1278"/>
      <point x="381" y="1370"/>
      <point x="519" y="1370" type="curve" smooth="yes"/>
      <point x="655" y="1370"/>
      <point x="703" y="1278"/>
      <point x="688" y="1181" type="curve" smooth="yes"/>
      <point x="672" y="1082"/>
      <point x="594" y="992"/>
    </contour>
    <contour>
      <point x="437" y="850" type="curve" smooth="yes"/>
      <point x="673" y="850"/>
      <point x="819" y="1010"/>
      <point x="846" y="1180" type="curve" smooth="yes"/>
      <point x="873" y="1351"/>
      <point x="777" y="1511"/>
      <point x="541" y="1511" type="curve" smooth="yes"/>
      <point x="302" y="1511"/>
      <point x="155" y="1351"/>
      <point x="128" y="1180" type="curve" smooth="yes"/>
      <point x="101" y="1010"/>
      <point x="197" y="850"/>
    </contour>
  </outline>
</glyph>
<glyph name="twosuperior" format="1">
  <advance width="1005"/>
  <unicode hex="00B2"/>
  <outline>
    <contour>
      <point x="113" y="624" type="line"/>
      <point x="752" y="624" type="line"/>
      <point x="776" y="773" type="line"/>
      <point x="348" y="773" type="line"/>
      <point x="622" y="971" type="line" smooth="yes"/>
      <point x="775" y="1081"/>
      <point x="855" y="1163"/>
      <point x="875" y="1295" type="curve" smooth="yes"/>
      <point x="901" y="1455"/>
      <point x="822" y="1582"/>
      <point x="573" y="1582" type="curve" smooth="yes"/>
      <point x="311" y="1582"/>
      <point x="195" y="1487"/>
      <point x="158" y="1256" type="curve"/>
      <point x="359" y="1256" type="line"/>
      <point x="382" y="1397"/>
      <point x="434" y="1435"/>
      <point x="558" y="1435" type="curve" smooth="yes"/>
      <point x="667" y="1435"/>
      <point x="700" y="1384"/>
      <point x="685" y="1294" type="curve" smooth="yes"/>
      <point x="674" y="1221"/>
      <point x="640" y="1177"/>
      <point x="522" y="1087" type="curve" smooth="yes"/>
      <point x="113" y="772" type="line"/>
    </contour>
  </outline>
</glyph>
<glyph name="threesuperior" format="1">
  <advance width="927"/>
  <unicode hex="00B3"/>
  <outline>
    <contour>
      <point x="391" y="608" type="curve" smooth="yes"/>
      <point x="595" y="607"/>
      <point x="741" y="688"/>
      <point x="770" y="874" type="curve" smooth="yes"/>
      <point x="789" y="997"/>
      <point x="752" y="1073"/>
      <point x="638" y="1104" type="curve"/>
      <point x="757" y="1126"/>
      <point x="817" y="1223"/>
      <point x="830" y="1334" type="curve" smooth="yes"/>
      <point x="850" y="1513"/>
      <point x="725" y="1582"/>
      <point x="543" y="1582" type="curve" smooth="yes"/>
      <point x="335" y="1582"/>
      <point x="208" y="1485"/>
      <point x="174" y="1276" type="curve"/>
      <point x="363" y="1276" type="line"/>
      <point x="380" y="1386"/>
      <point x="416" y="1432"/>
      <point x="519" y="1432" type="curve" smooth="yes"/>
      <point x="625" y="1432"/>
      <point x="643" y="1378"/>
      <point x="632" y="1310" type="curve" smooth="yes"/>
      <point x="617" y="1212"/>
      <point x="576" y="1174"/>
      <point x="401" y="1174" type="curve"/>
      <point x="378" y="1034" type="line"/>
      <point x="553" y="1034"/>
      <point x="589" y="994"/>
      <point x="571" y="879" type="curve" smooth="yes"/>
      <point x="558" y="798"/>
      <point x="509" y="760"/>
      <point x="413" y="760" type="curve" smooth="yes"/>
      <point x="313" y="760"/>
      <point x="287" y="807"/>
      <point x="302" y="918" type="curve"/>
      <point x="112" y="918" type="line"/>
      <point x="82" y="708"/>
      <point x="189" y="609"/>
    </contour>
  </outline>
</glyph>
<glyph name="cedilla" format="1">
  <advance width="512"/>
  <unicode hex="00B8"/>
  <outline>
    <contour>
      <point x="176" y="-484" type="curve" smooth="yes"/>
      <point x="340" y="-484"/>
      <point x="435" y="-395"/>
      <point x="450" y="-301" type="curve" smooth="yes"/>
      <point x="464" y="-211"/>
      <point x="435" y="-117"/>
      <point x="292" y="-91" type="curve"/>
      <point x="302" y="10" type="line"/>
      <point x="196" y="10" type="line"/>
      <point x="169" y="-162" type="line"/>
      <point x="266" y="-165"/>
      <point x="304" y="-225"/>
      <point x="295" y="-279" type="curve" smooth="yes"/>
      <point x="287" y="-330"/>
      <point x="243" y="-365"/>
      <point x="165" y="-365" type="curve" smooth="yes"/>
      <point x="146" y="-365"/>
      <point x="124" y="-363"/>
      <point x="101" y="-358" type="curve"/>
      <point x="82" y="-475" type="line"/>
      <point x="116" y="-482"/>
      <point x="147" y="-484"/>
    </contour>
    <contour>
      <point x="233" y="0" type="move" name="_bot"/>
    </contour>
  </outline>
</glyph>
<glyph name="guillemotright" format="1">
  <advance width="1024"/>
  <unicode hex="00BB"/>
  <outline>
    <contour>
      <point x="228" y="80" type="line"/>
      <point x="572" y="530" type="line"/>
      <point x="363" y="980" type="line"/>
      <point x="214" y="910" type="line"/>
      <point x="359" y="530" type="line"/>
      <point x="94" y="150" type="line"/>
    </contour>
    <contour>
      <point x="642" y="80" type="line"/>
      <point x="986" y="530" type="line"/>
      <point x="777" y="980" type="line"/>
      <point x="626" y="910" type="line"/>
      <point x="773" y="530" type="line"/>
      <point x="506" y="150" type="line"/>
    </contour>
  </outline>
</glyph>
<glyph name="onequarter" format="1">
  <advance width="2433.360"/>
  <unicode hex="00BC"/>
  <outline>
    <contour>
      <point x="1859" y="0" type="line"/>
      <point x="2018" y="0" type="line"/>
      <point x="2051" y="210" type="line"/>
      <point x="2219" y="210" type="line"/>
      <point x="2245" y="373" type="line"/>
      <point x="2077" y="373" type="line"/>
      <point x="2115" y="615" type="line"/>
      <point x="1956" y="615" type="line"/>
      <point x="1918" y="373" type="line"/>
      <point x="1619" y="373" type="line"/>
      <point x="1999" y="1074" type="line"/>
      <point x="1808" y="1074" type="line"/>
      <point x="1416" y="369" type="line"/>
      <point x="1391" y="210" type="line"/>
      <point x="1892" y="210" type="line"/>
    </contour>
    <contour>
      <point x="79" y="422" type="line"/>
      <point x="804" y="422" type="line"/>
      <point x="827" y="569" type="line"/>
      <point x="581" y="569" type="line"/>
      <point x="725" y="1477" type="line"/>
      <point x="579" y="1477" type="line"/>
      <point x="234" y="1424" type="line"/>
      <point x="229" y="1279" type="line"/>
      <point x="488" y="1318" type="line"/>
      <point x="369" y="569" type="line"/>
      <point x="101" y="569" type="line"/>
    </contour>
    <contour>
      <point x="730" y="0" type="line"/>
      <point x="904" y="0" type="line"/>
      <point x="1783" y="1505" type="line"/>
      <point x="1609" y="1505" type="line"/>
    </contour>
  </outline>
</glyph>
<glyph name="threequarters" format="1">
  <advance width="2882"/>
  <unicode hex="00BE"/>
  <outline>
    <contour>
      <point x="563" y="437" type="curve" smooth="yes"/>
      <point x="839" y="437"/>
      <point x="940" y="582"/>
      <point x="966" y="744" type="curve" smooth="yes"/>
      <point x="985" y="863"/>
      <point x="963" y="956"/>
      <point x="841" y="990" type="curve"/>
      <point x="980" y="1018"/>
      <point x="1016" y="1120"/>
      <point x="1032" y="1219" type="curve" smooth="yes"/>
      <point x="1059" y="1392"/>
      <point x="962" y="1496"/>
      <point x="737" y="1496" type="curve" smooth="yes"/>
      <point x="508" y="1496"/>
      <point x="356" y="1423"/>
      <point x="313" y="1156" type="curve"/>
      <point x="498" y="1156" type="line"/>
      <point x="521" y="1310"/>
      <point x="562" y="1344"/>
      <point x="705" y="1344" type="curve" smooth="yes"/>
      <point x="829" y="1344"/>
      <point x="859" y="1297"/>
      <point x="845" y="1209" type="curve" smooth="yes"/>
      <point x="829" y="1106"/>
      <point x="816" y="1059"/>
      <point x="611" y="1059" type="curve"/>
      <point x="588" y="917" type="line"/>
      <point x="772" y="917"/>
      <point x="798" y="873"/>
      <point x="779" y="753" type="curve" smooth="yes"/>
      <point x="763" y="651"/>
      <point x="728" y="591"/>
      <point x="600" y="591" type="curve" smooth="yes"/>
      <point x="463" y="591"/>
      <point x="410" y="612"/>
      <point x="433" y="773" type="curve"/>
      <point x="248" y="773" type="line"/>
      <point x="216" y="537"/>
      <point x="294" y="437"/>
    </contour>
    <contour>
      <point x="1899" y="0" type="line"/>
      <point x="2058" y="0" type="line"/>
      <point x="2091" y="210" type="line"/>
      <point x="2259" y="210" type="line"/>
      <point x="2285" y="373" type="line"/>
      <point x="2117" y="373" type="line"/>
      <point x="2155" y="615" type="line"/>
      <point x="1996" y="615" type="line"/>
      <point x="1958" y="373" type="line"/>
      <point x="1659" y="373" type="line"/>
      <point x="2039" y="1074" type="line"/>
      <point x="1848" y="1074" type="line"/>
      <point x="1456" y="369" type="line"/>
      <point x="1431" y="210" type="line"/>
      <point x="1932" y="210" type="line"/>
    </contour>
    <contour>
      <point x="770" y="0" type="line"/>
      <point x="944" y="0" type="line"/>
      <point x="1823" y="1505" type="line"/>
      <point x="1649" y="1505" type="line"/>
    </contour>
  </outline>
</glyph>
<glyph name="AE" format="1">
  <advance width="1834"/>
  <unicode hex="00C6"/>
  <outline>
    <contour>
      <point x="-34" y="0" type="line"/>
      <point x="276" y="0" type="line"/>
      <point x="400" y="281" type="line"/>
      <point x="821" y="281" type="line"/>
      <point x="776" y="0" type="line"/>
      <point x="1593" y="0" type="line"/>
      <point x="1629" y="227" type="line"/>
      <point x="1092" y="227" type="line"/>
      <point x="1158" y="645" type="line"/>
      <point x="1615" y="645" type="line"/>
      <point x="1649" y="858" type="line"/>
      <point x="1192" y="858" type="line"/>
      <point x="1254" y="1249" type="line"/>
      <point x="1781" y="1249" type="line"/>
      <point x="1817" y="1477" type="line"/>
      <point x="656" y="1477" type="line"/>
    </contour>
    <contour>
      <point x="486" y="477" type="line"/>
      <point x="838" y="1249" type="line"/>
      <point x="974" y="1249" type="line"/>
      <point x="852" y="477" type="line"/>
    </contour>
    <contour>
      <point x="1213" y="1476" type="move" name="top"/>
    </contour>
  </outline>
</glyph>
<glyph name="Thorn" format="1">
  <advance width="1362"/>
  <unicode hex="00DE"/>
  <outline>
    <contour>
      <point x="99" y="0" type="line"/>
      <point x="396" y="0" type="line"/>
      <point x="452" y="356" type="line"/>
      <point x="717" y="356" type="line" smooth="yes"/>
      <point x="1103" y="356"/>
      <point x="1229" y="469"/>
      <point x="1284" y="811" type="curve" smooth="yes"/>
      <point x="1336" y="1143"/>
      <point x="1213" y="1240"/>
      <point x="886" y="1240" type="curve" smooth="yes"/>
      <point x="593" y="1240" type="line"/>
      <point x="630" y="1476" type="line"/>
      <point x="333" y="1476" type="line"/>
    </contour>
    <contour>
      <point x="486" y="567" type="line"/>
      <point x="560" y="1033" type="line"/>
      <point x="881" y="1033" type="line" smooth="yes"/>
      <point x="1021" y="1033"/>
      <point x="1038" y="951"/>
      <point x="1013" y="797" type="curve" smooth="yes"/>
      <point x="985" y="619"/>
      <point x="948" y="567"/>
      <point x="798" y="567" type="curve" smooth="yes"/>
    </contour>
  </outline>
</glyph>
<glyph name="germandbls" format="1">
  <advance width="1286"/>
  <unicode hex="00DF"/>
  <outline>
    <contour>
      <point x="22" y="0" type="line"/>
      <point x="332" y="0" type="line"/>
      <point x="511" y="1129" type="line" smooth="yes"/>
      <point x="529" y="1244"/>
      <point x="579" y="1318"/>
      <point x="724" y="1318" type="curve" smooth="yes"/>
      <point x="904" y="1318"/>
      <point x="909" y="1207"/>
      <point x="894" y="1110" type="curve" smooth="yes"/>
      <point x="877" y="1001"/>
      <point x="824" y="893"/>
      <point x="642" y="893" type="curve"/>
      <point x="612" y="703" type="line"/>
      <point x="812" y="683"/>
      <point x="908" y="649"/>
      <point x="872" y="422" type="curve" smooth="yes"/>
      <point x="847" y="264"/>
      <point x="763" y="169"/>
      <point x="513" y="169" type="curve"/>
      <point x="501" y="-20" type="line"/>
      <point x="930" y="-20"/>
      <point x="1119" y="156"/>
      <point x="1158" y="400" type="curve" smooth="yes"/>
      <point x="1181" y="547"/>
      <point x="1168" y="759"/>
      <point x="891" y="819" type="curve"/>
      <point x="1062" y="864"/>
      <point x="1154" y="990"/>
      <point x="1175" y="1122" type="curve" smooth="yes"/>
      <point x="1209" y="1336"/>
      <point x="1107" y="1507"/>
      <point x="734" y="1507" type="curve" smooth="yes"/>
      <point x="415" y="1507"/>
      <point x="236" y="1350"/>
      <point x="199" y="1118" type="curve" smooth="yes"/>
    </contour>
  </outline>
</glyph>
<glyph name="oslash" format="1">
  <advance width="1180"/>
  <unicode hex="00F8"/>
  <outline>
    <contour>
      <point x="249" y="-214" type="line"/>
      <point x="1011" y="1260" type="line"/>
      <point x="942" y="1281" type="line"/>
      <point x="180" y="-194" type="line"/>
    </contour>
    <component base="o"/>
    <contour>
      <point x="686" y="1074" type="move" name="top"/>
    </contour>
  </outline>
</glyph>
<glyph name="dotlessi" format="1">
  <advance width="570"/>
  <unicode hex="0131"/>
  <outline>
    <contour>
      <point x="85" y="0" type="line"/>
      <point x="336" y="0" type="line"/>
      <point x="506" y="1074" type="line"/>
      <point x="255" y="1074" type="line"/>
    </contour>
    <contour>
      <point x="224" y="0" type="move" name="ogonek"/>
    </contour>
    <contour>
      <point x="388" y="1074" type="move" name="top"/>
    </contour>
  </outline>
</glyph>
<glyph name="kgreenlandic" format="1">
  <advance width="1213"/>
  <unicode hex="0138"/>
  <outline>
    <contour>
      <point x="86" y="0" type="line"/>
      <point x="359" y="0" type="line"/>
      <point x="420" y="385" type="line"/>
      <point x="531" y="483" type="line"/>
      <point x="779" y="0" type="line"/>
      <point x="1105" y="0" type="line"/>
      <point x="782" y="605" type="line"/>
      <point x="1254" y="1074" type="line"/>
      <point x="930" y="1074" type="line"/>
      <point x="869" y="1018"/>
      <point x="515" y="657"/>
      <point x="454" y="602" type="curve"/>
      <point x="529" y="1074" type="line"/>
      <point x="256" y="1074" type="line"/>
    </contour>
  </outline>
</glyph>
<glyph name="OE" format="1">
  <advance width="1633"/>
  <unicode hex="0152"/>
  <outline>
    <contour>
      <point x="600" y="0" type="curve" smooth="yes"/>
      <point x="1390" y="0" type="line"/>
      <point x="1420" y="190" type="line"/>
      <point x="1069" y="190" type="line"/>
      <point x="1144" y="665" type="line"/>
      <point x="1410" y="665" type="line"/>
      <point x="1441" y="858" type="line"/>
      <point x="1175" y="858" type="line"/>
      <point x="1243" y="1287" type="line"/>
      <point x="1592" y="1287" type="line"/>
      <point x="1622" y="1476" type="line"/>
      <point x="834" y="1476" type="line" smooth="yes"/>
      <point x="381" y="1475"/>
      <point x="241" y="1247"/>
      <point x="195" y="958" type="curve" smooth="yes"/>
      <point x="123" y="506" type="line" smooth="yes"/>
      <point x="77" y="211"/>
      <point x="149" y="0"/>
    </contour>
    <contour>
      <point x="627" y="191" type="line" smooth="yes"/>
      <point x="407" y="191"/>
      <point x="361" y="302"/>
      <point x="383" y="444" type="curve" smooth="yes"/>
      <point x="475" y="1022" type="line" smooth="yes"/>
      <point x="498" y="1165"/>
      <point x="581" y="1279"/>
      <point x="799" y="1279" type="curve" smooth="yes"/>
      <point x="972" y="1279" type="line"/>
      <point x="799" y="191" type="line"/>
    </contour>
  </outline>
</glyph>
<glyph name="dotaccent" format="1">
  <advance width="489"/>
  <unicode hex="02D9"/>
  <outline>
    <contour>
      <point x="97" y="1251" type="line"/>
      <point x="365" y="1251" type="line"/>
      <point x="405" y="1505" type="line"/>
      <point x="137" y="1505" type="line"/>
    </contour>
    <contour>
      <point x="209" y="1074" type="move" name="_top"/>
    </contour>
  </outline>
</glyph>
<glyph name="tilde" format="1">
  <advance width="759"/>
  <unicode hex="02DC"/>
  <outline>
    <contour>
      <point x="247" y="1231" type="curve" smooth="yes"/>
      <point x="400" y="1231"/>
      <point x="456" y="1334"/>
      <point x="510" y="1334" type="curve" smooth="yes"/>
      <point x="543" y="1334"/>
      <point x="562" y="1308"/>
      <point x="553" y="1247" type="curve"/>
      <point x="671" y="1247" type="line"/>
      <point x="700" y="1434"/>
      <point x="632" y="1507"/>
      <point x="512" y="1507" type="curve" smooth="yes"/>
      <point x="358" y="1507"/>
      <point x="306" y="1405"/>
      <point x="256" y="1405" type="curve" smooth="yes"/>
      <point x="221" y="1405"/>
      <point x="196" y="1428"/>
      <point x="206" y="1491" type="curve"/>
      <point x="88" y="1491" type="line"/>
      <point x="59" y="1304"/>
      <point x="127" y="1231"/>
    </contour>
    <contour>
      <point x="339" y="1074" type="move" name="_top"/>
    </contour>
  </outline>
</glyph>
<glyph name="uni0307" format="1">
  <advance width="600"/>
  <unicode hex="0307"/>
  <outline>
    <contour>
      <point x="170" y="1327" type="line"/>
      <point x="363" y="1327" type="line"/>
      <point x="395" y="1535" type="line"/>
      <point x="202" y="1535" type="line"/>
    </contour>
    <contour>
      <point x="234" y="1060" type="move" name="_top"/>
    </contour>
  </outline>
</glyph>
<glyph name="uni030F" format="1">
  <advance width="1024"/>
  <unicode hex="030F"/>
  <outline>
    <contour>
      <point x="720" y="1157" type="line"/>
      <point x="869" y="1157" type="line"/>
      <point x="813" y="1522" type="line"/>
      <point x="545" y="1522" type="line"/>
    </contour>
    <contour>
      <point x="310" y="1157" type="line"/>
      <point x="459" y="1157" type="line"/>
      <point x="403" y="1522" type="line"/>
      <point x="135" y="1522" type="line"/>
    </contour>
    <contour>
      <point x="596" y="1074" type="move" name="_top"/>
    </contour>
  </outline>
</glyph>
<glyph name="uni0311" format="1">
  <advance width="575"/>
  <unicode hex="0311"/>
  <outline>
    <contour>
      <point x="13" y="1217" type="curve"/>
      <point x="157" y="1217" type="line"/>
      <point x="170" y="1293"/>
      <point x="229" y="1317"/>
      <point x="285" y="1317" type="curve" smooth="yes"/>
      <point x="341" y="1317"/>
      <point x="394" y="1293"/>
      <point x="381" y="1217" type="curve"/>
      <point x="525" y="1217" type="line"/>
      <point x="557" y="1417"/>
      <point x="439" y="1476"/>
      <point x="311" y="1476" type="curve" smooth="yes"/>
      <point x="183" y="1476"/>
      <point x="45" y="1417"/>
    </contour>
    <contour>
      <point x="258" y="1074" type="move" name="_top"/>
    </contour>
  </outline>
</glyph>
<glyph name="Delta" format="1">
  <advance width="1419"/>
  <unicode hex="0394"/>
  <outline>
    <contour>
      <point x="-9" y="0" type="line"/>
      <point x="1192" y="0" type="line"/>
      <point x="948" y="1476" type="line"/>
      <point x="731" y="1476" type="line"/>
    </contour>
    <contour>
      <point x="293" y="198" type="line"/>
      <point x="752" y="1141" type="line"/>
      <point x="879" y="198" type="line"/>
    </contour>
  </outline>
</glyph>
<glyph name="quotedblleft" format="1">
  <advance width="1310"/>
  <unicode hex="201C"/>
  <outline>
    <contour>
      <point x="505" y="1515" type="line"/>
      <point x="434" y="1459"/>
      <point x="270" y="1274"/>
      <point x="239" y="1073" type="curve" smooth="yes"/>
      <point x="203" y="850" type="line"/>
      <point x="525" y="850" type="line"/>
      <point x="569" y="1126" type="line"/>
      <point x="404" y="1126" type="line"/>
      <point x="426" y="1264"/>
      <point x="544" y="1411"/>
      <point x="604" y="1469" type="curve"/>
    </contour>
    <contour>
      <point x="981" y="1515" type="line"/>
      <point x="910" y="1459"/>
      <point x="746" y="1274"/>
      <point x="715" y="1073" type="curve" smooth="yes"/>
      <point x="679" y="850" type="line"/>
      <point x="1001" y="850" type="line"/>
      <point x="1045" y="1126" type="line"/>
      <point x="880" y="1126" type="line"/>
      <point x="902" y="1264"/>
      <point x="1020" y="1411"/>
      <point x="1080" y="1469" type="curve"/>
    </contour>
  </outline>
</glyph>
<glyph name="quotedblbase" format="1">
  <advance width="1373"/>
  <unicode hex="201E"/>
  <outline>
    <contour>
      <point x="868" y="-389" type="line"/>
      <point x="939" y="-333"/>
      <point x="1103" y="-148"/>
      <point x="1134" y="53" type="curve" smooth="yes"/>
      <point x="1170" y="276" type="line"/>
      <point x="848" y="276" type="line"/>
      <point x="804" y="0" type="line"/>
      <point x="969" y="0" type="line"/>
      <point x="947" y="-138"/>
      <point x="829" y="-285"/>
      <point x="769" y="-343" type="curve"/>
    </contour>
    <contour>
      <point x="369" y="-389" type="line"/>
      <point x="440" y="-333"/>
      <point x="604" y="-148"/>
      <point x="635" y="53" type="curve" smooth="yes"/>
      <point x="671" y="276" type="line"/>
      <point x="349" y="276" type="line"/>
      <point x="305" y="0" type="line"/>
      <point x="470" y="0" type="line"/>
      <point x="448" y="-138"/>
      <point x="330" y="-285"/>
      <point x="270" y="-343" type="curve"/>
    </contour>
  </outline>
</glyph>
<glyph name="daggerdbl" format="1">
  <advance width="1025"/>
  <unicode hex="2021"/>
  <outline>
    <contour>
      <point x="304" y="0" type="line"/>
      <point x="509" y="0" type="line"/>
      <point x="570" y="383" type="line"/>
      <point x="762" y="383" type="line"/>
      <point x="791" y="569" type="line"/>
      <point x="599" y="569" type="line"/>
      <point x="647" y="873" type="line"/>
      <point x="839" y="873" type="line"/>
      <point x="869" y="1059" type="line"/>
      <point x="677" y="1059" type="line"/>
      <point x="719" y="1324" type="line"/>
      <point x="514" y="1324" type="line"/>
      <point x="472" y="1059" type="line"/>
      <point x="282" y="1059" type="line"/>
      <point x="252" y="873" type="line"/>
      <point x="442" y="873" type="line"/>
      <point x="394" y="569" type="line"/>
      <point x="204" y="569" type="line"/>
      <point x="175" y="383" type="line"/>
      <point x="365" y="383" type="line"/>
    </contour>
  </outline>
</glyph>
<glyph name="perthousand" format="1">
  <advance width="2769"/>
  <unicode hex="2030"/>
  <outline>
    <contour>
      <point x="440" y="788" type="curve" smooth="yes"/>
      <point x="312" y="788"/>
      <point x="314" y="888"/>
      <point x="336" y="1023" type="curve" smooth="yes"/>
      <point x="350" y="1112" type="line" smooth="yes"/>
      <point x="371" y="1242"/>
      <point x="394" y="1331"/>
      <point x="526" y="1331" type="curve" smooth="yes"/>
      <point x="658" y="1331"/>
      <point x="653" y="1242"/>
      <point x="632" y="1110" type="curve" smooth="yes"/>
      <point x="618" y="1023" type="line" smooth="yes"/>
      <point x="596" y="888"/>
      <point x="567" y="788"/>
    </contour>
    <contour>
      <point x="419" y="658" type="curve" smooth="yes"/>
      <point x="649" y="658"/>
      <point x="747" y="808"/>
      <point x="783" y="1037" type="curve" smooth="yes"/>
      <point x="792" y="1091" type="line" smooth="yes"/>
      <point x="827" y="1324"/>
      <point x="776" y="1461"/>
      <point x="546" y="1461" type="curve" smooth="yes"/>
      <point x="315" y="1461"/>
      <point x="223" y="1323"/>
      <point x="186" y="1090" type="curve" smooth="yes"/>
      <point x="178" y="1037" type="line" smooth="yes"/>
      <point x="142" y="809"/>
      <point x="189" y="658"/>
    </contour>
    <contour>
      <point x="1449" y="111" type="curve" smooth="yes"/>
      <point x="1321" y="111"/>
      <point x="1324" y="211"/>
      <point x="1346" y="346" type="curve" smooth="yes"/>
      <point x="1360" y="435" type="line" smooth="yes"/>
      <point x="1380" y="565"/>
      <point x="1403" y="654"/>
      <point x="1535" y="654" type="curve" smooth="yes"/>
      <point x="1667" y="654"/>
      <point x="1663" y="565"/>
      <point x="1642" y="433" type="curve" smooth="yes"/>
      <point x="1629" y="346" type="line" smooth="yes"/>
      <point x="1607" y="211"/>
      <point x="1576" y="111"/>
    </contour>
    <contour>
      <point x="1429" y="-19" type="curve" smooth="yes"/>
      <point x="1659" y="-19"/>
      <point x="1758" y="131"/>
      <point x="1794" y="360" type="curve" smooth="yes"/>
      <point x="1802" y="414" type="line" smooth="yes"/>
      <point x="1837" y="647"/>
      <point x="1786" y="784"/>
      <point x="1556" y="784" type="curve" smooth="yes"/>
      <point x="1325" y="784"/>
      <point x="1233" y="646"/>
      <point x="1196" y="413" type="curve" smooth="yes"/>
      <point x="1188" y="360" type="line" smooth="yes"/>
      <point x="1152" y="132"/>
      <point x="1199" y="-19"/>
    </contour>
    <contour>
      <point x="2203" y="111" type="curve" smooth="yes"/>
      <point x="2075" y="111"/>
      <point x="2078" y="211"/>
      <point x="2100" y="346" type="curve" smooth="yes"/>
      <point x="2114" y="435" type="line" smooth="yes"/>
      <point x="2134" y="565"/>
      <point x="2157" y="654"/>
      <point x="2289" y="654" type="curve" smooth="yes"/>
      <point x="2421" y="654"/>
      <point x="2417" y="565"/>
      <point x="2396" y="433" type="curve" smooth="yes"/>
      <point x="2383" y="346" type="line" smooth="yes"/>
      <point x="2361" y="211"/>
      <point x="2330" y="111"/>
    </contour>
    <contour>
      <point x="2183" y="-19" type="curve" smooth="yes"/>
      <point x="2413" y="-19"/>
      <point x="2512" y="131"/>
      <point x="2548" y="360" type="curve" smooth="yes"/>
      <point x="2556" y="414" type="line" smooth="yes"/>
      <point x="2591" y="647"/>
      <point x="2540" y="784"/>
      <point x="2310" y="784" type="curve" smooth="yes"/>
      <point x="2079" y="784"/>
      <point x="1987" y="646"/>
      <point x="1950" y="413" type="curve" smooth="yes"/>
      <point x="1942" y="360" type="line" smooth="yes"/>
      <point x="1906" y="132"/>
      <point x="1953" y="-19"/>
    </contour>
    <contour>
      <point x="512" y="0" type="line"/>
      <point x="690" y="0" type="line"/>
      <point x="1457" y="1446" type="line"/>
      <point x="1284" y="1446" type="line"/>
    </contour>
  </outline>
</glyph>
<glyph name="fraction" format="1">
  <advance width="919"/>
  <unicode hex="2044"/>
  <outline>
    <contour>
      <point x="-65" y="0" type="line"/>
      <point x="178" y="0" type="line"/>
      <point x="985" y="1516" type="line"/>
      <point x="742" y="1516" type="line"/>
    </contour>
  </outline>
</glyph>
<glyph name="trademark" format="1">
  <advance width="1843"/>
  <unicode hex="2122"/>
  <outline>
    <contour>
      <point x="771" y="766" type="line"/>
      <point x="936" y="766" type="line"/>
      <point x="1011" y="1239" type="line"/>
      <point x="1121" y="931" type="line"/>
      <point x="1282" y="931" type="line"/>
      <point x="1483" y="1239" type="line"/>
      <point x="1408" y="766" type="line"/>
      <point x="1575" y="766" type="line"/>
      <point x="1683" y="1446" type="line"/>
      <point x="1467" y="1446" type="line"/>
      <point x="1227" y="1103" type="line"/>
      <point x="1097" y="1446" type="line"/>
      <point x="879" y="1446" type="line"/>
    </contour>
    <contour>
      <point x="261" y="766" type="line"/>
      <point x="456" y="766" type="line"/>
      <point x="541" y="1302" type="line"/>
      <point x="723" y="1302" type="line"/>
      <point x="746" y="1446" type="line"/>
      <point x="187" y="1446" type="line"/>
      <point x="164" y="1302" type="line"/>
      <point x="346" y="1302" type="line"/>
    </contour>
  </outline>
</glyph>
<glyph name="partialdiff" format="1">
  <advance width="1216"/>
  <unicode hex="2202"/>
  <outline>
    <contour>
      <point x="354" y="-20" type="curve"/>
      <point x="747" y="-20"/>
      <point x="1051" y="387"/>
      <point x="1133" y="902" type="curve"/>
      <point x="1196" y="1303"/>
      <point x="994" y="1496"/>
      <point x="705" y="1496" type="curve"/>
      <point x="577" y="1496"/>
      <point x="427" y="1454"/>
      <point x="309" y="1389" type="curve"/>
      <point x="334" y="1288" type="line"/>
      <point x="446" y="1343"/>
      <point x="522" y="1364"/>
      <point x="600" y="1364" type="curve"/>
      <point x="768" y="1364"/>
      <point x="902" y="1241"/>
      <point x="857" y="958" type="curve"/>
      <point x="856" y="950"/>
      <point x="854" y="942"/>
      <point x="853" y="934" type="curve"/>
      <point x="389" y="906"/>
      <point x="85" y="573"/>
      <point x="43" y="310" type="curve"/>
      <point x="16" y="136"/>
      <point x="103" y="-20"/>
    </contour>
    <contour>
      <point x="392" y="130" type="curve"/>
      <point x="358" y="130"/>
      <point x="336" y="186"/>
      <point x="351" y="282" type="curve"/>
      <point x="382" y="477"/>
      <point x="568" y="744"/>
      <point x="822" y="794" type="curve"/>
      <point x="756" y="529"/>
      <point x="579" y="130"/>
    </contour>
  </outline>
</glyph>
<glyph name="summation" format="1">
  <advance width="1196"/>
  <unicode hex="2211"/>
  <outline>
    <contour>
      <point x="966" y="0" type="line"/>
      <point x="1003" y="232" type="line"/>
      <point x="376" y="232" type="line"/>
      <point x="900" y="718" type="line"/>
      <point x="916" y="817" type="line"/>
      <point x="548" y="1246" type="line"/>
      <point x="1163" y="1246" type="line"/>
      <point x="1200" y="1476" type="line"/>
      <point x="246" y="1476" type="line"/>
      <point x="209" y="1243" type="line"/>
      <point x="599" y="762" type="line"/>
      <point x="49" y="235" type="line"/>
      <point x="12" y="0" type="line"/>
    </contour>
  </outline>
</glyph>
<glyph name="infinity" format="1">
  <advance width="2048"/>
  <unicode hex="221E"/>
  <outline>
    <contour>
      <point x="444" y="360" type="curve" smooth="yes"/>
      <point x="627" y="360"/>
      <point x="1001" y="620"/>
      <point x="1001" y="620" type="curve"/>
      <point x="1001" y="620"/>
      <point x="1293" y="360"/>
      <point x="1476" y="360" type="curve" smooth="yes"/>
      <point x="1638" y="360"/>
      <point x="1788" y="500"/>
      <point x="1830" y="765" type="curve" smooth="yes"/>
      <point x="1872" y="1030"/>
      <point x="1766" y="1170"/>
      <point x="1604" y="1170" type="curve" smooth="yes"/>
      <point x="1421" y="1170"/>
      <point x="1047" y="910"/>
      <point x="1047" y="910" type="curve"/>
      <point x="1047" y="910"/>
      <point x="755" y="1170"/>
      <point x="572" y="1170" type="curve" smooth="yes"/>
      <point x="410" y="1170"/>
      <point x="260" y="1030"/>
      <point x="218" y="765" type="curve" smooth="yes"/>
      <point x="176" y="500"/>
      <point x="282" y="360"/>
    </contour>
    <contour>
      <point x="499" y="593" type="curve" smooth="yes"/>
      <point x="390" y="593"/>
      <point x="362" y="666"/>
      <point x="378" y="765" type="curve" smooth="yes"/>
      <point x="394" y="864"/>
      <point x="444" y="937"/>
      <point x="553" y="937" type="curve" smooth="yes"/>
      <point x="627" y="937"/>
      <point x="791" y="817"/>
      <point x="889" y="765" type="curve"/>
      <point x="775" y="713"/>
      <point x="573" y="593"/>
    </contour>
    <contour>
      <point x="1495" y="593" type="curve" smooth="yes"/>
      <point x="1421" y="593"/>
      <point x="1257" y="713"/>
      <point x="1159" y="765" type="curve"/>
      <point x="1273" y="817"/>
      <point x="1475" y="937"/>
      <point x="1549" y="937" type="curve" smooth="yes"/>
      <point x="1658" y="937"/>
      <point x="1686" y="864"/>
      <point x="1670" y="765" type="curve" smooth="yes"/>
      <point x="1654" y="666"/>
      <point x="1604" y="593"/>
    </contour>
  </outline>
</glyph>
<glyph name="notequal" format="1">
  <advance width="919"/>
  <unicode hex="2260"/>
  <outline>
    <contour>
      <point x="51" y="150" type="line"/>
      <point x="224" y="150" type="line"/>
      <point x="813" y="1094" type="line"/>
      <point x="640" y="1094" type="line"/>
    </contour>
    <component base="equal"/>
  </outline>
</glyph>
<glyph name="lessequal" format="1">
  <advance width="1252"/>
  <unicode hex="2264"/>
  <outline>
    <contour>
      <point x="959" y="239" type="line"/>
      <point x="995" y="470" type="line"/>
      <point x="439" y="764" type="line"/>
      <point x="1088" y="1058" type="line"/>
      <point x="1125" y="1289" type="line"/>
      <point x="275" y="872" type="line"/>
      <point x="240" y="653" type="line"/>
    </contour>
    <contour>
      <point x="127" y="0" type="line"/>
      <point x="919" y="0" type="line"/>
      <point x="947" y="175" type="line"/>
      <point x="155" y="175" type="line"/>
    </contour>
  </outline>
</glyph>
<glyph name="caron.alt" format="1">
  <advance width="600"/>
  <outline>
    <contour>
      <point x="655" y="1193" type="line"/>
      <point x="726" y="1250"/>
      <point x="889" y="1434"/>
      <point x="920" y="1635" type="curve" smooth="yes"/>
      <point x="956" y="1858" type="line"/>
      <point x="635" y="1858" type="line"/>
      <point x="591" y="1582" type="line"/>
      <point x="756" y="1582" type="line"/>
      <point x="734" y="1444"/>
      <point x="616" y="1298"/>
      <point x="556" y="1240" type="curve"/>
    </contour>
    <contour>
      <point x="310" y="1074" type="move" name="_caron.alt"/>
    </contour>
  </outline>
</glyph>
